<?xml version="1.0" encoding="UTF-8"?>
<!DOCTYPE svg PUBLIC "-//W3C//DTD SVG 1.1//EN" "http://www.w3.org/Graphics/SVG/1.1/DTD/svg11.dtd">
<svg xmlns="http://www.w3.org/2000/svg" version="1.1" width="900px" height="820px" style="shape-rendering:geometricPrecision; text-rendering:geometricPrecision; image-rendering:optimizeQuality; fill-rule:evenodd; clip-rule:evenodd" xmlns:xlink="http://www.w3.org/1999/xlink">
<g><path style="opacity:1" fill="#fefdfd" d="M -0.5,-0.5 C 299.5,-0.5 599.5,-0.5 899.5,-0.5C 899.5,272.833 899.5,546.167 899.5,819.5C 599.5,819.5 299.5,819.5 -0.5,819.5C -0.5,546.167 -0.5,272.833 -0.5,-0.5 Z"/></g>
<g><path style="opacity:1" fill="#3f4140" d="M 448.5,16.5 C 449.725,17.1522 450.392,18.3189 450.5,20C 456.914,70.1636 471.747,117.664 495,162.5C 510.325,190.614 530.492,214.781 555.5,235C 539.983,249.352 524.316,263.518 508.5,277.5C 511.747,277.136 515.081,275.97 518.5,274C 532.167,266.5 545.833,259 559.5,251.5C 563.474,263.236 567.974,274.903 573,286.5C 577.817,295.819 583.984,304.152 591.5,311.5C 579.921,333.659 568.088,355.659 556,377.5C 527.496,350.336 495.663,327.836 460.5,310C 456.992,308.331 453.325,307.164 449.5,306.5C 432.739,312.214 417.072,320.047 402.5,330C 381.828,344.166 362.161,359.666 343.5,376.5C 342.522,376.023 341.689,375.357 341,374.5C 329.833,353.5 318.667,332.5 307.5,311.5C 322.916,294.67 333.083,275.004 338,252.5C 338.414,252.043 338.914,251.709 339.5,251.5C 355.603,260.301 371.77,268.968 388,277.5C 388.5,277.167 389,276.833 389.5,276.5C 374.043,262.88 358.71,249.047 343.5,235C 375.261,208.568 399.428,176.401 416,138.5C 433.055,99.4991 443.889,58.8325 448.5,16.5 Z"/></g>
<g><path style="opacity:1" fill="#282828" d="M 821.5,121.5 C 814.613,135.614 807.947,149.947 801.5,164.5C 779.681,213.474 757.848,262.474 736,311.5C 731.452,286.88 727.119,262.213 723,237.5C 709.388,230.279 695.888,222.946 682.5,215.5C 738.765,161.07 794.932,106.403 851,51.5C 840.937,74.639 831.104,97.9723 821.5,121.5 Z"/></g>
<g><path style="opacity:1" fill="#3f4140" d="M 134.5,248.5 C 116.262,205.435 97.2616,162.768 77.5,120.5C 67.6385,97.451 57.8051,74.451 48,51.5C 104.041,106.376 160.208,161.042 216.5,215.5C 202.874,222.632 189.374,229.966 176,237.5C 171.881,262.213 167.548,286.88 163,311.5C 153.999,290.172 144.499,269.172 134.5,248.5 Z"/></g>
<g><path style="opacity:1" fill="#781417" d="M 400.5,114.5 C 401.239,114.369 401.906,114.536 402.5,115C 381.206,156.422 360.039,197.922 339,239.5C 345.154,201.741 354.487,164.741 367,128.5C 368.377,126.246 369.877,124.08 371.5,122C 381.412,119.94 391.079,117.44 400.5,114.5 Z"/></g>
<g><path style="opacity:1" fill="#5a0f15" d="M 497.5,115.5 C 507.649,117.109 517.983,119.276 528.5,122C 531.902,125.968 534.402,130.468 536,135.5C 546.863,169.617 555.197,204.284 561,239.5C 540.074,197.981 518.908,156.647 497.5,115.5 Z"/></g>
<g><path style="opacity:1" fill="#5a0f15" d="M 547.5,126.5 C 556.604,130.886 565.604,135.552 574.5,140.5C 575.806,141.912 576.64,143.579 577,145.5C 578.865,158.093 579.698,170.76 579.5,183.5C 579.2,209.915 577.7,236.248 575,262.5C 565.768,217.171 556.601,171.838 547.5,126.5 Z"/></g>
<g><path style="opacity:1" fill="#e7e7e7" d="M 821.5,121.5 C 822.686,122.961 822.686,124.295 821.5,125.5C 816.057,139.722 810.057,153.722 803.5,167.5C 803.573,165.973 802.906,164.973 801.5,164.5C 807.947,149.947 814.613,135.614 821.5,121.5 Z"/></g>
<g><path style="opacity:1" fill="#282828" d="M 585.5,145.5 C 612.845,163 637.679,183.667 660,207.5C 660.781,208.729 661.281,210.062 661.5,211.5C 653.56,227.379 646.727,243.712 641,260.5C 640.02,248.072 639.353,235.405 639,222.5C 638.333,221.167 637.667,221.167 637,222.5C 623.862,250.776 610.195,278.776 596,306.5C 591.515,301.351 587.848,295.684 585,289.5C 586.933,254.36 588.767,219.193 590.5,184C 590.408,174.81 589.908,165.644 589,156.5C 588.516,152.55 587.349,148.883 585.5,145.5 Z"/></g>
<g><path style="opacity:1" fill="#3f4140" d="M 312.5,145.5 C 313.043,145.56 313.376,145.893 313.5,146.5C 311.448,149.488 310.281,152.821 310,156.5C 309.063,165.475 308.563,174.475 308.5,183.5C 310.115,218.867 311.948,254.2 314,289.5C 311.152,295.684 307.485,301.351 303,306.5C 289.349,278.531 275.683,250.531 262,222.5C 261.333,221.167 260.667,221.167 260,222.5C 259.61,235.182 258.944,247.848 258,260.5C 252.273,243.712 245.44,227.379 237.5,211.5C 237.719,210.062 238.219,208.729 239,207.5C 261.545,184.34 286.045,163.674 312.5,145.5 Z"/></g>
<g><path style="opacity:1" fill="#781416" d="M 349.5,126.5 C 350.497,126.47 351.164,126.97 351.5,128C 342.205,172.806 333.039,217.639 324,262.5C 321.352,236.245 319.852,209.912 319.5,183.5C 319.302,170.76 320.135,158.093 322,145.5C 322.36,143.579 323.194,141.912 324.5,140.5C 333.057,136.059 341.391,131.392 349.5,126.5 Z"/></g>
<g><path style="opacity:1" fill="#f1f3f2" d="M 77.5,120.5 C 97.2616,162.768 116.262,205.435 134.5,248.5C 133.069,249.78 132.402,251.447 132.5,253.5C 115.776,215.706 99.2759,177.706 83,139.5C 82.5172,140.448 82.3505,141.448 82.5,142.5C 81.7611,142.631 81.0944,142.464 80.5,142C 81.5536,140.612 81.7203,139.112 81,137.5C 79.065,132.527 77.2316,127.527 75.5,122.5C 76.2427,121.818 76.9094,121.151 77.5,120.5 Z"/></g>
<g><path style="opacity:1" fill="#3f4140" d="M 229.5,216.5 C 230.376,216.369 231.043,216.702 231.5,217.5C 241.266,236.631 248.766,256.631 254,277.5C 263.48,315.566 270.647,354.066 275.5,393C 275.167,394.167 274.833,395.333 274.5,396.5C 261.412,388.897 248.745,380.731 236.5,372C 219.972,330.444 203.305,288.944 186.5,247.5C 200.686,236.912 215.019,226.579 229.5,216.5 Z"/></g>
<g><path style="opacity:1" fill="#282828" d="M 667.5,216.5 C 683.312,225.644 698.312,235.978 712.5,247.5C 695.695,288.944 679.028,330.444 662.5,372C 650.255,380.731 637.588,388.897 624.5,396.5C 628.703,347.963 637.869,300.297 652,253.5C 656.108,240.662 661.275,228.328 667.5,216.5 Z"/></g>
<g><path style="opacity:1" fill="#282828" d="M 821.5,125.5 C 800.572,190.451 779.739,255.451 759,320.5C 750.667,324.5 742.333,328.5 734,332.5C 733.833,332 733.667,331.5 733.5,331C 756.983,276.537 780.317,222.037 803.5,167.5C 810.057,153.722 816.057,139.722 821.5,125.5 Z"/></g>
<g><path style="opacity:1" fill="#282828" d="M 714.5,251.5 C 715.978,251.238 717.311,251.571 718.5,252.5C 720.62,257.643 722.12,262.977 723,268.5C 725.831,289.128 727.331,309.795 727.5,330.5C 723.735,327.238 720.068,323.738 716.5,320C 714.5,319.333 712.5,319.333 710.5,320C 706.214,324.064 703.048,328.897 701,334.5C 698.845,340.786 696.845,347.12 695,353.5C 688.304,358.362 681.47,363.029 674.5,367.5C 673.628,365.534 673.795,363.534 675,361.5C 688.875,325.038 702.042,288.372 714.5,251.5 Z"/></g>
<g><path style="opacity:1" fill="#767676" d="M 882.5,260.5 C 881.395,261.6 880.062,262.267 878.5,262.5C 879.375,260.194 880.708,259.527 882.5,260.5 Z"/></g>
<g><path style="opacity:1" fill="#3f4140" d="M 132.5,253.5 C 143.488,279.479 154.488,305.479 165.5,331.5C 157.011,328.695 148.511,325.028 140,320.5C 121.138,261.048 101.972,201.715 82.5,142.5C 82.3505,141.448 82.5172,140.448 83,139.5C 99.2759,177.706 115.776,215.706 132.5,253.5 Z"/></g>
<g><path style="opacity:1" fill="#484848" d="M 20.5,262.5 C 22.4044,262.738 23.7377,263.738 24.5,265.5C 22.5956,265.262 21.2623,264.262 20.5,262.5 Z"/></g>
<g><path style="opacity:1" fill="#2d2d2d" d="M 878.5,262.5 C 877.738,264.262 876.404,265.262 874.5,265.5C 875.262,263.738 876.596,262.738 878.5,262.5 Z"/></g>
<g><path style="opacity:1" fill="#3f4140" d="M 180.5,251.5 C 182.981,251.323 184.814,252.323 186,254.5C 198.402,291.372 211.402,328.038 225,364.5C 225.749,365.635 225.583,366.635 224.5,367.5C 217.53,363.029 210.696,358.362 204,353.5C 201.735,343.302 198.068,333.636 193,324.5C 191.5,323 190,321.5 188.5,320C 186.5,319.333 184.5,319.333 182.5,320C 178.985,323.682 175.318,327.182 171.5,330.5C 171.666,312.163 172.833,293.83 175,275.5C 175.893,267.264 177.726,259.264 180.5,251.5 Z"/></g>
<g><path style="opacity:1" fill="#222222" d="M 633.5,250.5 C 625.771,308.758 616.937,367.091 607,425.5C 589.632,436.365 572.132,447.032 554.5,457.5C 554.167,456.333 553.833,455.167 553.5,454C 556.041,434.839 558.541,415.672 561,396.5C 585.449,347.935 609.616,299.268 633.5,250.5 Z"/></g>
<g><path style="opacity:1" fill="#3f4140" d="M 264.5,250.5 C 289.226,298.95 313.726,347.617 338,396.5C 340.295,415.695 342.795,434.861 345.5,454C 345.167,455.167 344.833,456.333 344.5,457.5C 327.083,446.708 309.583,436.041 292,425.5C 282.616,367.198 273.45,308.865 264.5,250.5 Z"/></g>
<g><path style="opacity:1" fill="#222222" d="M 874.5,265.5 C 733.485,385.846 592.152,505.846 450.5,625.5C 449.819,617.765 449.152,609.932 448.5,602C 449.416,601.722 450.082,601.222 450.5,600.5C 474.633,579.863 492.799,554.863 505,525.5C 507.619,518.692 509.452,511.692 510.5,504.5C 523.748,500.377 536.415,494.877 548.5,488C 572,474.753 595,460.753 617.5,446C 655.34,420.581 693.007,394.914 730.5,369C 778.397,334.256 826.397,299.756 874.5,265.5 Z"/></g>
<g><path style="opacity:1" fill="#3f4140" d="M 24.5,265.5 C 110.708,328.95 198.375,390.45 287.5,450C 311.169,464.837 335.169,479.17 359.5,493C 368.749,497.961 378.416,501.794 388.5,504.5C 392.396,524.026 399.896,542.026 411,558.5C 420.723,573.223 432.223,586.389 445.5,598C 447.078,599.094 448.745,599.928 450.5,600.5C 450.082,601.222 449.416,601.722 448.5,602C 449.152,609.932 449.819,617.765 450.5,625.5C 450.103,626.525 449.437,626.692 448.5,626C 306.975,505.969 165.642,385.802 24.5,265.5 Z"/></g>
<g><path style="opacity:1" fill="#f9f8f8" d="M 28.5,261.5 C 28.9731,262.906 29.9731,263.573 31.5,263.5C 31.9731,264.906 32.9731,265.573 34.5,265.5C 149.756,343.473 265.423,420.973 381.5,498C 384.363,499.399 387.363,500.399 390.5,501C 396.086,525.108 405.92,547.275 420,567.5C 425.424,573.431 431.258,578.764 437.5,583.5C 416.272,559.71 402.438,532.043 396,500.5C 381.269,487.594 366.436,474.927 351.5,462.5C 352.492,462.672 353.158,462.338 353.5,461.5C 367.458,472.286 381.292,483.286 395,494.5C 395.19,475.809 394.523,457.142 393,438.5C 392.697,436.112 391.863,433.945 390.5,432C 370.509,424.168 354.509,411.334 342.5,393.5C 344.104,392.713 344.771,391.38 344.5,389.5C 347.059,389.198 349.393,389.532 351.5,390.5C 349.5,390.5 347.5,390.5 345.5,390.5C 346.049,392.901 346.882,395.235 348,397.5C 360.695,409.516 375.028,419.183 391,426.5C 392.776,414.907 393.61,403.24 393.5,391.5C 395.641,391.888 397.641,391.888 399.5,391.5C 398.8,395.798 398.467,400.131 398.5,404.5C 397.061,413.435 396.561,422.435 397,431.5C 400.64,427.407 404.806,423.907 409.5,421C 422.992,415.076 436.326,415.242 449.5,421.5C 463.501,414.964 477.501,415.131 491.5,422C 494.701,425.536 498.201,428.703 502,431.5C 502.372,424.16 502.205,416.827 501.5,409.5C 502.776,417.318 504.109,417.318 505.5,409.5C 506.205,415.045 507.039,420.712 508,426.5C 523.141,419.357 536.975,410.357 549.5,399.5C 549.5,400.167 549.833,400.5 550.5,400.5C 539.765,415.912 525.432,426.245 507.5,431.5C 506.195,436.743 505.361,442.076 505,447.5C 504.607,460.005 504.107,472.505 503.5,485C 503.833,488.167 504.167,491.333 504.5,494.5C 514.985,485.102 525.985,476.435 537.5,468.5C 537.5,469.167 537.833,469.5 538.5,469.5C 527.019,480.169 515.186,490.503 503,500.5C 496.476,532.55 482.309,560.55 460.5,584.5C 480.133,569.606 493.633,550.273 501,526.5C 503.713,518.032 506.213,509.532 508.5,501C 511.754,500.75 514.754,499.75 517.5,498C 633.577,420.973 749.244,343.473 864.5,265.5C 866.027,265.573 867.027,264.906 867.5,263.5C 872.857,259.499 878.524,255.833 884.5,252.5C 885.7,253.531 887.034,254.365 888.5,255C 886.033,257.215 884.033,259.048 882.5,260.5C 880.708,259.527 879.375,260.194 878.5,262.5C 876.596,262.738 875.262,263.738 874.5,265.5C 826.397,299.756 778.397,334.256 730.5,369C 693.007,394.914 655.34,420.581 617.5,446C 595,460.753 572,474.753 548.5,488C 536.415,494.877 523.748,500.377 510.5,504.5C 509.452,511.692 507.619,518.692 505,525.5C 492.799,554.863 474.633,579.863 450.5,600.5C 448.745,599.928 447.078,599.094 445.5,598C 432.223,586.389 420.723,573.223 411,558.5C 399.896,542.026 392.396,524.026 388.5,504.5C 378.416,501.794 368.749,497.961 359.5,493C 335.169,479.17 311.169,464.837 287.5,450C 198.375,390.45 110.708,328.95 24.5,265.5C 23.7377,263.738 22.4044,262.738 20.5,262.5C 17.2295,260.409 14.0628,258.076 11,255.5C 10.6667,255.833 10.3333,256.167 10,256.5C 9.2211,254.094 10.0544,252.427 12.5,251.5C 18.234,254.358 23.5674,257.691 28.5,261.5 Z"/></g>
<g><path style="opacity:1" fill="#3f4140" d="M 342.5,393.5 C 354.509,411.334 370.509,424.168 390.5,432C 391.863,433.945 392.697,436.112 393,438.5C 394.523,457.142 395.19,475.809 395,494.5C 381.292,483.286 367.458,472.286 353.5,461.5C 352.855,460.188 351.855,459.188 350.5,458.5C 346.844,436.584 344.011,414.584 342,392.5C 342.399,392.728 342.565,393.062 342.5,393.5 Z"/></g>
<g><path style="opacity:1" fill="#222222" d="M 537.5,468.5 C 525.985,476.435 514.985,485.102 504.5,494.5C 504.167,491.333 503.833,488.167 503.5,485C 504.107,472.505 504.607,460.005 505,447.5C 505.361,442.076 506.195,436.743 507.5,431.5C 525.432,426.245 539.765,415.912 550.5,400.5C 552.833,397.997 554.999,395.331 557,392.5C 555.082,414.595 552.248,436.595 548.5,458.5C 544.192,461.15 540.526,464.483 537.5,468.5 Z"/></g>
<g><path style="opacity:1" fill="#222222" d="M 549.5,399.5 C 536.975,410.357 523.141,419.357 508,426.5C 507.039,420.712 506.205,415.045 505.5,409.5C 505.5,403.5 505.5,397.5 505.5,391.5C 521.5,391.167 537.5,390.833 553.5,390.5C 552.557,393.66 551.223,396.66 549.5,399.5 Z"/></g>
<g><path style="opacity:1" fill="#3f4140" d="M 351.5,390.5 C 365.491,391.129 379.491,391.463 393.5,391.5C 393.61,403.24 392.776,414.907 391,426.5C 375.028,419.183 360.695,409.516 348,397.5C 346.882,395.235 346.049,392.901 345.5,390.5C 347.5,390.5 349.5,390.5 351.5,390.5 Z"/></g>
<g><path style="opacity:1" fill="#791316" d="M 499.5,395.5 C 500.341,400.01 501.008,404.676 501.5,409.5C 502.205,416.827 502.372,424.16 502,431.5C 498.201,428.703 494.701,425.536 491.5,422C 477.501,415.131 463.501,414.964 449.5,421.5C 436.326,415.242 422.992,415.076 409.5,421C 404.806,423.907 400.64,427.407 397,431.5C 396.561,422.435 397.061,413.435 398.5,404.5C 399.314,402.369 399.814,400.036 400,397.5C 401.506,395.826 403.339,394.826 405.5,394.5C 405.52,392.857 404.853,391.524 403.5,390.5C 407.144,388.191 411.144,387.024 415.5,387C 440.855,386.125 466.188,386.459 491.5,388C 493.439,388.908 494.439,390.408 494.5,392.5C 495.833,392.5 497.167,392.5 498.5,392.5C 498.263,393.791 498.596,394.791 499.5,395.5 Z"/></g>
<g><path style="opacity:1" fill="#404140" d="M 864.5,265.5 C 749.244,343.473 633.577,420.973 517.5,498C 514.754,499.75 511.754,500.75 508.5,501C 506.213,509.532 503.713,518.032 501,526.5C 493.633,550.273 480.133,569.606 460.5,584.5C 482.309,560.55 496.476,532.55 503,500.5C 515.186,490.503 527.019,480.169 538.5,469.5C 541.603,467.577 544.603,465.41 547.5,463C 551.771,464.269 555.771,463.603 559.5,461C 577.084,450.292 594.584,439.459 612,428.5C 613.012,422.093 614.345,415.76 616,409.5C 698.643,361.098 781.476,313.098 864.5,265.5 Z"/></g>
<g><path style="opacity:1" fill="#71171b" d="M 499.5,395.5 C 498.596,394.791 498.263,393.791 498.5,392.5C 497.167,392.5 495.833,392.5 494.5,392.5C 494.439,390.408 493.439,388.908 491.5,388C 466.188,386.459 440.855,386.125 415.5,387C 411.144,387.024 407.144,388.191 403.5,390.5C 404.853,391.524 405.52,392.857 405.5,394.5C 403.339,394.826 401.506,395.826 400,397.5C 399.814,400.036 399.314,402.369 398.5,404.5C 398.467,400.131 398.8,395.798 399.5,391.5C 402.471,389.343 405.471,387.176 408.5,385C 435.833,384.333 463.167,384.333 490.5,385C 493.333,387.167 496.167,389.333 499,391.5C 499.49,392.793 499.657,394.127 499.5,395.5 Z"/></g>
<g><path style="opacity:1" fill="#3f4140" d="M 34.5,265.5 C 117.524,313.098 200.357,361.098 283,409.5C 284.49,415.794 285.823,422.127 287,428.5C 306.131,440.801 325.631,452.467 345.5,463.5C 347.453,462.844 349.453,462.511 351.5,462.5C 366.436,474.927 381.269,487.594 396,500.5C 402.438,532.043 416.272,559.71 437.5,583.5C 431.258,578.764 425.424,573.431 420,567.5C 405.92,547.275 396.086,525.108 390.5,501C 387.363,500.399 384.363,499.399 381.5,498C 265.423,420.973 149.756,343.473 34.5,265.5 Z"/></g>
<g><path style="opacity:1" fill="#5b5b5b" d="M 431.5,322.5 C 411.321,340.842 390.654,358.676 369.5,376C 362.51,378.116 355.51,379.783 348.5,381C 376.064,361.255 403.731,341.755 431.5,322.5 Z"/></g>
<g><path style="opacity:1" fill="#5b5b5b" d="M 464.5,321.5 C 464.56,320.957 464.893,320.624 465.5,320.5C 493.833,340.667 522.167,360.833 550.5,381C 543.025,379.847 535.692,377.847 528.5,375C 507.294,356.955 485.96,339.122 464.5,321.5 Z"/></g>
<g><path style="opacity:1" fill="#5b5b5b" d="M 448.5,316.5 C 449.496,316.414 450.329,316.748 451,317.5C 458.289,329.8 467.456,340.633 478.5,350C 491.268,360.769 504.601,370.769 518.5,380C 512.405,380.806 506.905,382.973 502,386.5C 490.487,378.082 477.654,375.249 463.5,378C 458.83,378.834 454.163,379.668 449.5,380.5C 435.835,376.899 422.168,376.732 408.5,380C 404.407,381.794 400.574,383.961 397,386.5C 391.807,382.767 385.973,380.6 379.5,380C 404.679,365.163 426.512,346.329 445,323.5C 446.193,321.114 447.36,318.78 448.5,316.5 Z"/></g>
<g><path style="opacity:1" fill="#626262" d="M 431.5,322.5 C 432.002,320.915 433.002,320.415 434.5,321C 433.756,322.039 432.756,322.539 431.5,322.5 Z"/></g>
<g><path style="opacity:1" fill="#444444" d="M 867.5,263.5 C 867.027,264.906 866.027,265.573 864.5,265.5C 864.973,264.094 865.973,263.427 867.5,263.5 Z"/></g>
<g><path style="opacity:1" fill="#404040" d="M 31.5,263.5 C 33.0269,263.427 34.0269,264.094 34.5,265.5C 32.9731,265.573 31.9731,264.906 31.5,263.5 Z"/></g>
<g><path style="opacity:1" fill="#5b5b5b" d="M 28.5,261.5 C 30.0269,261.427 31.0269,262.094 31.5,263.5C 29.9731,263.573 28.9731,262.906 28.5,261.5 Z"/></g>
<g><path style="opacity:1" fill="#3f4140" d="M 312.5,517.5 C 287.547,501.684 262.881,485.351 238.5,468.5C 236.931,469.714 236.098,471.381 236,473.5C 234.216,484.872 232.216,496.205 230,507.5C 229.282,508.451 228.449,508.617 227.5,508C 218.749,493.092 214.082,477.092 213.5,460C 213.253,451.292 213.586,442.459 214.5,433.5C 222.214,439.716 228.714,447.05 234,455.5C 234.14,453.744 233.64,452.078 232.5,450.5C 233.002,449.479 233.668,449.312 234.5,450C 260.758,472.281 286.758,494.781 312.5,517.5 Z"/></g>
<g><path style="opacity:1" fill="#282828" d="M 585.5,518.5 C 611.845,494.659 638.678,471.325 666,448.5C 666.464,449.094 666.631,449.761 666.5,450.5C 665.297,451.943 664.797,453.609 665,455.5C 666.481,454.529 667.315,453.196 667.5,451.5C 670.934,447.494 674.268,443.328 677.5,439C 680.333,436.833 683.167,434.667 686,432.5C 685.632,447.767 684.965,463.101 684,478.5C 680.586,488.409 676.586,498.076 672,507.5C 670.989,508.337 669.822,508.67 668.5,508.5C 666.886,496.813 665.052,485.146 663,473.5C 662.902,471.381 662.069,469.714 660.5,468.5C 635.615,485.435 610.615,502.102 585.5,518.5 Z"/></g>
<g><path style="opacity:1" fill="#791316" d="M 406.5,434.5 C 408.465,436.488 410.798,437.988 413.5,439C 419.787,440.162 426.121,440.995 432.5,441.5C 444.049,440.282 455.383,440.282 466.5,441.5C 473.652,441.169 480.652,440.002 487.5,438C 489.286,437.215 490.786,436.049 492,434.5C 493.373,464.812 490.04,494.812 482,524.5C 477.547,540.598 469.381,554.431 457.5,566C 454.494,568.515 451.16,569.849 447.5,570C 438.234,564.068 431.068,556.235 426,546.5C 416.596,526.885 410.929,506.219 409,484.5C 407.248,467.88 406.415,451.213 406.5,434.5 Z"/></g>
<g><path style="opacity:1" fill="#9c9c9c" d="M 666.5,450.5 C 666.5,451.167 666.833,451.5 667.5,451.5C 667.315,453.196 666.481,454.529 665,455.5C 664.797,453.609 665.297,451.943 666.5,450.5 Z"/></g>
<g><path style="opacity:1" fill="#282828" d="M 747.5,383.5 C 747.974,410.721 744.807,437.721 738,464.5C 722.273,526.608 697.273,584.608 663,638.5C 666.66,612.867 670.66,587.2 675,561.5C 679.177,551.785 684.01,542.451 689.5,533.5C 695.474,534.774 700.307,532.774 704,527.5C 715.835,506.33 723.501,483.663 727,459.5C 730.067,437.615 732.4,415.949 734,394.5C 738.478,390.695 742.978,387.028 747.5,383.5 Z"/></g>
<g><path style="opacity:1" fill="#3f4140" d="M 207.5,480.5 C 224.52,514.874 243.353,548.207 264,580.5C 276.055,599.222 290.889,615.388 308.5,629C 308.618,639.629 308.451,650.462 308,661.5C 272.345,624.86 241.678,584.526 216,540.5C 210.575,528.647 205.409,516.647 200.5,504.5C 203.243,496.605 205.577,488.605 207.5,480.5 Z"/></g>
<g><path style="opacity:1" fill="#282828" d="M 690.5,481.5 C 691.497,481.47 692.164,481.97 692.5,483C 694.603,489.81 696.603,496.643 698.5,503.5C 693.447,518.278 687.28,532.611 680,546.5C 654.923,588.261 625.256,626.595 591,661.5C 590.593,650.154 590.926,638.82 592,627.5C 607.08,615.755 620.08,602.088 631,586.5C 653.388,553.069 673.222,518.069 690.5,481.5 Z"/></g>
<g><path style="opacity:1" fill="#3f4140" d="M 150.5,383.5 C 154.675,386.835 159.008,390.002 163.5,393C 165.532,395.299 166.199,397.799 165.5,400.5C 167.21,427.052 170.71,453.385 176,479.5C 179.796,496.565 186.13,512.565 195,527.5C 198.439,532.897 203.106,534.563 209,532.5C 214.24,541.978 219.24,551.645 224,561.5C 228.151,587.233 232.151,612.9 236,638.5C 191.21,569.138 163.21,493.471 152,411.5C 150.872,402.2 150.372,392.866 150.5,383.5 Z"/></g>
<g><path style="opacity:1" fill="#656565" d="M 312.5,517.5 C 313.756,517.461 314.756,517.961 315.5,519C 314.002,519.585 313.002,519.085 312.5,517.5 Z"/></g>
<g><path style="opacity:1" fill="#393939" d="M 585.5,518.5 C 584.998,520.085 583.998,520.585 582.5,520C 583.244,518.961 584.244,518.461 585.5,518.5 Z"/></g>
<g><path style="opacity:1" fill="#41499c" d="M 326.5,534.5 C 335.137,538.629 343.137,543.796 350.5,550C 361.675,559.677 372.675,569.51 383.5,579.5C 370.402,575.141 357.402,569.807 344.5,563.5C 338.228,553.945 332.228,544.278 326.5,534.5 Z"/></g>
<g><path style="opacity:1" fill="#42499b" d="M 571.5,533.5 C 572.239,533.369 572.906,533.536 573.5,534C 566.833,544 560.167,554 553.5,564C 540.617,569.952 527.617,575.285 514.5,580C 532.238,562.744 551.238,547.244 571.5,533.5 Z"/></g>
<g><path style="opacity:1" fill="#616161" d="M 437.5,583.5 C 439.544,584.031 441.211,585.198 442.5,587C 440.228,586.923 438.562,585.757 437.5,583.5 Z"/></g>
<g><path style="opacity:1" fill="#8c8c8c" d="M 460.5,584.5 C 459.121,587.073 457.121,588.573 454.5,589C 456.114,586.873 458.114,585.373 460.5,584.5 Z"/></g>
<g><path style="opacity:1" fill="#404140" d="M 362.5,607.5 C 370.837,620.344 382.503,628.177 397.5,631C 394.42,637.161 391.087,643.161 387.5,649C 386.833,649.667 386.167,649.667 385.5,649C 379.969,643.134 374.135,637.634 368,632.5C 365.718,624.255 363.885,615.922 362.5,607.5 Z"/></g>
<g><path style="opacity:1" fill="#282828" d="M 634.5,491.5 C 635.117,491.611 635.617,491.944 636,492.5C 636.352,500.177 636.852,507.844 637.5,515.5C 633.451,535.941 626.285,555.275 616,573.5C 606.17,591.164 595.837,608.497 585,625.5C 584.333,640.167 584.333,654.833 585,669.5C 586.049,670.517 587.216,670.684 588.5,670C 604,652.5 619.5,635 635,617.5C 618.828,652.846 601.828,687.846 584,722.5C 571.909,734.763 559.076,746.096 545.5,756.5C 545.167,756.167 544.833,755.833 544.5,755.5C 547.747,748.849 549.913,741.849 551,734.5C 552.246,726.196 553.246,717.863 554,709.5C 555.196,687.817 555.696,666.15 555.5,644.5C 562.147,639.686 567.981,634.02 573,627.5C 591.119,600.599 606.119,571.933 618,541.5C 617.453,529.489 616.787,517.489 616,505.5C 622.325,500.934 628.491,496.268 634.5,491.5 Z"/></g>
<g><path style="opacity:1" fill="#3f4140" d="M 263.5,491.5 C 269.982,495.913 276.315,500.58 282.5,505.5C 282.833,506.667 283.167,507.833 283.5,509C 281.882,519.796 281.049,530.63 281,541.5C 293.145,574.253 309.478,604.587 330,632.5C 334.054,637.057 338.554,641.057 343.5,644.5C 343.828,658.563 343.828,672.73 343.5,687C 344.128,704.571 345.962,722.071 349,739.5C 350.307,745.405 351.973,751.072 354,756.5C 337.453,744.886 322.786,731.219 310,715.5C 295.106,683.379 279.94,651.379 264.5,619.5C 264.846,618.304 265.346,618.304 266,619.5C 280.716,636.427 295.549,653.261 310.5,670C 311.784,670.684 312.951,670.517 314,669.5C 314.667,654.833 314.667,640.167 314,625.5C 297.878,600.932 283.545,575.265 271,548.5C 266.316,538.282 263.149,527.615 261.5,516.5C 262.068,508.103 262.735,499.769 263.5,491.5 Z"/></g>
<g><path style="opacity:1" fill="#3f4040" d="M 535.5,607.5 C 535.148,615.787 533.648,624.121 531,632.5C 524.865,637.634 519.031,643.134 513.5,649C 512.833,649.667 512.167,649.667 511.5,649C 507.913,643.161 504.58,637.161 501.5,631C 516.78,628.861 528.113,621.028 535.5,607.5 Z"/></g>
<g><path style="opacity:1" fill="#3f4140" d="M 310.5,536.5 C 318.11,556.96 331.444,572.794 350.5,584C 347.783,588.26 345.783,592.76 344.5,597.5C 347.346,612.231 350.513,626.898 354,641.5C 361.636,650.137 369.636,658.47 378,666.5C 386.313,684.956 394.479,703.456 402.5,722C 402.384,723.268 402.051,724.602 401.5,726C 402.312,732.085 402.812,738.252 403,744.5C 404.274,749.539 405.274,754.539 406,759.5C 403.833,757.333 401.667,755.167 399.5,753C 382.219,744.385 369.719,731.219 362,713.5C 351.424,688.955 346.091,663.288 346,636.5C 333.275,606.051 320.275,575.717 307,545.5C 305.98,541.553 307.147,538.553 310.5,536.5 Z"/></g>
<g><path style="opacity:1" fill="#404140" d="M 408.5,632.5 C 423.941,636.164 437.108,644.164 448,656.5C 448.711,654.101 448.544,651.768 447.5,649.5C 448.53,649.446 449.697,649.112 451,648.5C 450.68,651.46 450.68,654.46 451,657.5C 460.884,644.644 473.717,636.478 489.5,633C 480.22,641.06 473.553,650.893 469.5,662.5C 463.048,658.876 456.382,658.543 449.5,661.5C 446.06,660.52 442.56,659.853 439,659.5C 435.615,659.36 432.615,660.36 430,662.5C 426.936,656.04 423.603,649.707 420,643.5C 416.956,638.955 413.123,635.289 408.5,632.5 Z"/></g>
<g><path style="opacity:1" fill="#282828" d="M 586.5,537.5 C 591.037,538.226 592.87,540.893 592,545.5C 579.723,574.998 567.056,604.331 554,633.5C 551.669,649.445 549.669,665.445 548,681.5C 543.509,701.667 535.175,720 523,736.5C 516.204,744.303 508.037,750.136 498.5,754C 497.042,756.46 495.209,758.627 493,760.5C 493.655,755.192 494.655,749.859 496,744.5C 496.333,736.833 496.667,729.167 497,721.5C 505,703.5 513,685.5 521,667.5C 528.58,658.916 536.58,650.583 545,642.5C 548.295,627.691 551.462,612.858 554.5,598C 553.586,593.172 551.586,588.838 548.5,585C 564.156,575.678 575.989,562.845 584,546.5C 585.145,543.568 585.978,540.568 586.5,537.5 Z"/></g>
<g><path style="opacity:1" fill="#404141" d="M 421.5,692.5 C 418.017,696.817 416.184,701.817 416,707.5C 412.528,710.457 409.695,713.79 407.5,717.5C 405.589,717.426 404.422,716.426 404,714.5C 396.861,697.418 389.528,680.418 382,663.5C 373.236,655.408 365.236,646.741 358,637.5C 353.183,623.913 350.349,609.913 349.5,595.5C 350.497,592.838 351.497,590.172 352.5,587.5C 353.002,586.479 353.668,586.312 354.5,587C 355.74,588.73 356.74,590.563 357.5,592.5C 356.356,595.287 355.356,598.12 354.5,601C 357.463,612.888 360.629,624.721 364,636.5C 372,645.833 380.667,654.5 390,662.5C 395.667,676.833 401.333,691.167 407,705.5C 408.938,706.86 410.604,706.527 412,704.5C 415.081,698.669 418.415,693.002 422,687.5C 421.981,689.107 421.815,690.774 421.5,692.5 Z"/></g>
<g><path style="opacity:1" fill="#3f4140" d="M 492.5,717.5 C 489.538,714.036 486.371,710.703 483,707.5C 482.667,705.5 482.333,703.5 482,701.5C 481.503,704.146 481.336,706.813 481.5,709.5C 481.5,710.5 481.5,711.5 481.5,712.5C 480.509,719.313 480.175,726.313 480.5,733.5C 471.364,747.084 463.197,761.418 456,776.5C 453.528,783.415 451.362,790.415 449.5,797.5C 443.561,774.956 433.395,754.623 419,736.5C 418.517,735.552 418.351,734.552 418.5,733.5C 418.821,727.974 418.488,722.64 417.5,717.5C 417.5,714.833 417.5,712.167 417.5,709.5C 416.879,703.419 418.545,698.086 422.5,693.5C 427.156,686.195 431.823,678.862 436.5,671.5C 445.167,668.833 453.833,668.833 462.5,671.5C 468.135,680.966 473.969,690.3 480,699.5C 480.654,700.696 481.154,700.696 481.5,699.5C 479.096,695.718 477.596,691.718 477,687.5C 480.585,693.002 483.919,698.669 487,704.5C 488.133,706.211 489.633,706.711 491.5,706C 497.524,691.597 503.358,677.097 509,662.5C 518.333,654.5 527,645.833 535,636.5C 538.371,624.721 541.537,612.888 544.5,601C 543.644,598.12 542.644,595.287 541.5,592.5C 542.336,590.158 543.67,588.158 545.5,586.5C 547.215,589.305 548.548,592.305 549.5,595.5C 548.394,609.863 545.561,623.863 541,637.5C 533.736,646.767 525.736,655.434 517,663.5C 509.472,680.418 502.139,697.418 495,714.5C 494.623,715.942 493.79,716.942 492.5,717.5 Z"/></g>
<g><path style="opacity:1" fill="#c4acac" d="M 492.5,717.5 C 491.833,717.5 491.5,717.833 491.5,718.5C 488.167,715.5 484.833,712.5 481.5,709.5C 481.336,706.813 481.503,704.146 482,701.5C 482.333,703.5 482.667,705.5 483,707.5C 486.371,710.703 489.538,714.036 492.5,717.5 Z"/></g>
<g><path style="opacity:1" fill="#c9b6b3" d="M 421.5,692.5 C 421.5,693.167 421.833,693.5 422.5,693.5C 418.545,698.086 416.879,703.419 417.5,709.5C 414.167,712.5 410.833,715.5 407.5,718.5C 407.5,718.167 407.5,717.833 407.5,717.5C 409.695,713.79 412.528,710.457 416,707.5C 416.184,701.817 418.017,696.817 421.5,692.5 Z"/></g>
<g><path style="opacity:1" fill="#781618" d="M 417.5,709.5 C 417.5,712.167 417.5,714.833 417.5,717.5C 416.746,722.463 416.413,727.463 416.5,732.5C 413.482,736.017 410.315,739.35 407,742.5C 406.2,734.421 406.367,726.421 407.5,718.5C 410.833,715.5 414.167,712.5 417.5,709.5 Z"/></g>
<g><path style="opacity:1" fill="#927672" d="M 417.5,717.5 C 418.488,722.64 418.821,727.974 418.5,733.5C 417.833,733.167 417.167,732.833 416.5,732.5C 416.413,727.463 416.746,722.463 417.5,717.5 Z"/></g>
<g><path style="opacity:1" fill="#8e7373" d="M 481.5,712.5 C 481.833,719.167 482.167,725.833 482.5,732.5C 481.833,732.833 481.167,733.167 480.5,733.5C 480.175,726.313 480.509,719.313 481.5,712.5 Z"/></g>
<g><path style="opacity:1" fill="#76181a" d="M 481.5,709.5 C 484.833,712.5 488.167,715.5 491.5,718.5C 492.633,726.421 492.8,734.421 492,742.5C 488.685,739.35 485.518,736.017 482.5,732.5C 482.167,725.833 481.833,719.167 481.5,712.5C 481.5,711.5 481.5,710.5 481.5,709.5 Z"/></g>
</svg>
